<?xml version="1.0" encoding="utf-8"?>
<!-- Generator: Adobe Illustrator 22.0.1, SVG Export Plug-In . SVG Version: 6.00 Build 0)  -->
<svg version="1.1" id="Layer_1" xmlns="http://www.w3.org/2000/svg" xmlns:xlink="http://www.w3.org/1999/xlink" x="0px" y="0px"
	 viewBox="0 0 150 45" style="enable-background:new 0 0 150 45;" xml:space="preserve">
<style type="text/css">
	.st0{fill:#FFFFFF;}
</style>
<g id="g4735" transform="translate(-260,-679.05195)">
	
		<path id="path4867" class="st0" d="
		M272.6,723.2c-7.4-1.8-11.2-7-12.3-16.6c-0.3-2.7-0.3-4-0.3-16v-11.6h7c0,9,0,17.9,0.2,26.4c0.9,8,4,12,10.3,12.4
		c5.9,0.4,9.8-2.1,11.6-7.5c0.7-2,0.6-4.3,0.8-7.4l0.1-23.9h7.1l0,13c0,13.4,0,13.4-0.4,16c-1.1,8.4-5.1,13.4-11.9,15.1
		c-1.9,0.5-3.2,0.6-5.8,0.7C276.8,724,274.7,723.7,272.6,723.2z"/>
	
		<path id="path2421" class="st0" d="
		M315,685h-13v-6h33v6h-13v38.8h-7L315,685L315,685z"/>
	
		<path id="path4878" class="st0" d="
		M394.1,723.7c-5.9-0.7-9.4-4-10.8-10.2c-0.7-3.1-0.7-8.1-0.2-11.6c0.7-4.3,2.6-7.5,5.5-9.1c2-1.1,4.1-1.7,7-1.8
		c7.2-0.3,11.8,2.7,13.5,8.9c1.2,4,1.2,10.4,0.2,14.6c-0.6,2.6-1.7,4.5-3.3,6c-1.8,1.7-4,2.7-7.1,3.1
		C397.9,723.8,395.1,723.8,394.1,723.7z M398.5,718.1c3.4-0.9,5-3.7,5.4-9.2c0.2-3.6-0.4-7.3-1.5-9.2c-0.7-1.2-1.5-1.9-2.6-2.5
		c-0.9-0.4-1.4-0.6-2.6-0.7c-1.6-0.2-3.5,0.2-4.6,0.9c-2,1.2-3.1,3.3-3.6,6.9c-0.2,1.2-0.1,5.4,0,6.6c0.7,4.7,2.6,6.9,6.2,7.5
		c0.1,0,0.8,0,1.5,0C397.6,718.3,398.1,718.3,398.5,718.1z"/>
	
		<path id="path2415" class="st0" d="
		M335.3,723.8c-1.2-0.2-2.3-1.1-2.9-2.2c-0.3-0.6-0.3-0.8-0.4-1.4c-0.1-1.7,0.7-3.1,2.1-3.9c1.2-0.6,2.4-0.6,3.6-0.1
		c1.5,0.7,2.3,2.1,2.2,3.9c-0.1,1.3-0.7,2.4-1.7,3C337.4,723.8,336.3,724,335.3,723.8z"/>
	
		<path id="path2409" class="st0" d="
		M349,702.9c0-5,2.5-7.8,4.6-9.4c1.7-1.3,3.7-2.1,6.2-2.4c1.2-0.2,3.8-0.2,5,0c7.8,0.9,11.2,6.9,11.2,13.9l0,18.9h-6
		c-0.3-6.9,0.7-14.4-0.4-21.2c-0.6-3-2-4.3-4.2-5.1c-1.7-0.7-3.6-0.6-5.4-0.2c-3.2,1-4.5,2.9-4.9,8.2l-0.2,18.4h-6.3
		C348.9,716.3,348.7,710.6,349,702.9z"/>
</g>
</svg>
